<svg id="Layer_1" data-name="Layer 1" xmlns="http://www.w3.org/2000/svg" viewBox="0 0 708.19 1002.75"><path d="M378.48,10.74c173.24.28,318.15,118.1,352.33,281.9,11.45,54.86,8.76,109.22-5.18,163.3-14.83,57.49-37.52,111.93-64,164.88-43.78,87.66-95.79,170.37-152.86,249.86-31.47,43.82-64.58,86.47-97.27,129.41-13.71,18-41.06,17.68-55.17,0C285.3,910.84,219,818.27,160.73,720.13c-39.41-66.36-75-134.62-101-207.52-14-39.16-24.87-79.09-28.54-120.65-4.43-50,1.49-99,19.34-145.9C96.13,126.41,181.61,50.87,305.77,19.5A294.34,294.34,0,0,1,378.48,10.74Zm5.21,919.42c1.67-2,2.78-3.2,3.74-4.51,29.73-40.58,60.13-80.68,89-121.86,46.95-67,90.08-136.44,127-209.57,24.79-49.11,46.37-99.49,60.22-153,14.48-55.88,14.21-111.32-3.75-166.41C617.54,145,489.48,61.78,353.7,76.25,291,82.93,235.79,107.35,189.35,150,127.61,206.79,95.75,277.49,94,361.47c-.69,32.62,5.7,64.24,14.68,95.4,16.59,57.54,41.69,111.5,69.84,164.11,46,85.93,99.85,166.83,157.41,245.33C351.48,887.53,367.43,908.45,383.69,930.16Z" transform="translate(-29.78 -10.72)"/><path d="M384.41,155.83c117.68.47,211.11,94.28,210.7,211.55-.41,115.39-96.42,211-211.52,210.69-116.4-.34-211.07-95.39-210.7-211.55C173.26,250,268.31,155.36,384.41,155.83Zm-.43,64c-81,0-146.89,65.72-147.09,146.74-.21,81.36,66,147.62,147.37,147.5C465.19,514,531.11,448,531.11,367A147.2,147.2,0,0,0,384,219.83Z" transform="translate(-29.78 -10.72)"/></svg>